<mxfile host="app.diagrams.net" modified="2023-02-10T06:42:24.259Z" agent="5.0 (Windows NT 10.0; Win64; x64) AppleWebKit/537.36 (KHTML, like Gecko) Chrome/109.0.0.0 Safari/537.36" etag="8B4dJ5CxlzJzIvjxiz0o" version="20.8.19" type="github">
  <diagram id="C5RBs43oDa-KdzZeNtuy" name="Page-1">
    <mxGraphModel dx="2261" dy="1933" grid="1" gridSize="10" guides="1" tooltips="1" connect="1" arrows="1" fold="1" page="1" pageScale="1" pageWidth="827" pageHeight="1169" math="0" shadow="0">
      <root>
        <mxCell id="WIyWlLk6GJQsqaUBKTNV-0" />
        <mxCell id="WIyWlLk6GJQsqaUBKTNV-1" parent="WIyWlLk6GJQsqaUBKTNV-0" />
        <mxCell id="WIyWlLk6GJQsqaUBKTNV-2" value="" style="rounded=0;html=1;jettySize=auto;orthogonalLoop=1;fontSize=11;endArrow=block;endFill=0;endSize=8;strokeWidth=1;shadow=1;labelBackgroundColor=none;edgeStyle=orthogonalEdgeStyle;sketch=1;curveFitting=1;jiggle=2;curved=1;" parent="WIyWlLk6GJQsqaUBKTNV-1" source="WIyWlLk6GJQsqaUBKTNV-3" target="WIyWlLk6GJQsqaUBKTNV-7" edge="1">
          <mxGeometry relative="1" as="geometry">
            <mxPoint x="255" y="170" as="targetPoint" />
          </mxGeometry>
        </mxCell>
        <mxCell id="WIyWlLk6GJQsqaUBKTNV-3" value="&lt;b style=&quot;font-size: 17px;&quot;&gt;&lt;font style=&quot;font-size: 17px;&quot; color=&quot;#990000&quot;&gt;用户输入:&lt;/font&gt;&lt;br&gt;&lt;/b&gt;&lt;font face=&quot;Tahoma&quot;&gt;电器工程师中级正可以挂靠吗，德国电器工程协会认证&lt;/font&gt;" style="rounded=1;whiteSpace=wrap;html=1;fontSize=12;glass=0;strokeWidth=1;shadow=1;sketch=1;curveFitting=1;jiggle=2;fillColor=#d5e8d4;strokeColor=#82b366;" parent="WIyWlLk6GJQsqaUBKTNV-1" vertex="1">
          <mxGeometry x="153" y="-20" width="267" height="80" as="geometry" />
        </mxCell>
        <mxCell id="9ntHC3iBTA-ZRn23DrVT-5" style="edgeStyle=orthogonalEdgeStyle;rounded=0;sketch=1;orthogonalLoop=1;jettySize=auto;html=1;exitX=0.5;exitY=1;exitDx=0;exitDy=0;shadow=1;fontSize=17;fontColor=#990000;curved=1;" edge="1" parent="WIyWlLk6GJQsqaUBKTNV-1" source="WIyWlLk6GJQsqaUBKTNV-7" target="9ntHC3iBTA-ZRn23DrVT-2">
          <mxGeometry relative="1" as="geometry" />
        </mxCell>
        <mxCell id="WIyWlLk6GJQsqaUBKTNV-7" value="&lt;b style=&quot;border-color: var(--border-color); font-size: 17px;&quot;&gt;&lt;font style=&quot;border-color: var(--border-color);&quot; color=&quot;#990000&quot;&gt;分词+拼写纠错:&lt;/font&gt;&lt;br style=&quot;border-color: var(--border-color);&quot;&gt;&lt;/b&gt;[电器, 工程师, 中级证, 可以, 挂靠, 吗, 德国, 电器, 工程, 协会, 认证]" style="rounded=1;whiteSpace=wrap;html=1;fontSize=12;glass=0;strokeWidth=1;shadow=0;sketch=1;curveFitting=1;jiggle=2;" parent="WIyWlLk6GJQsqaUBKTNV-1" vertex="1">
          <mxGeometry x="167" y="110" width="256" height="90" as="geometry" />
        </mxCell>
        <mxCell id="9ntHC3iBTA-ZRn23DrVT-17" style="edgeStyle=orthogonalEdgeStyle;rounded=0;sketch=1;orthogonalLoop=1;jettySize=auto;html=1;exitX=0.5;exitY=1;exitDx=0;exitDy=0;shadow=1;fontFamily=Tahoma;fontSize=17;fontColor=#990000;targetPerimeterSpacing=2;curved=1;" edge="1" parent="WIyWlLk6GJQsqaUBKTNV-1" source="9ntHC3iBTA-ZRn23DrVT-2" target="9ntHC3iBTA-ZRn23DrVT-4">
          <mxGeometry relative="1" as="geometry" />
        </mxCell>
        <mxCell id="9ntHC3iBTA-ZRn23DrVT-2" value="&lt;b style=&quot;border-color: var(--border-color); font-size: 17px;&quot;&gt;&lt;font style=&quot;border-color: var(--border-color);&quot; color=&quot;#990000&quot;&gt;去除停用词:&lt;br&gt;&lt;/font&gt;&lt;/b&gt;[电器, 工程师, 中级证, 挂靠,德国, 电器, 工程, 协会, 认证]" style="rounded=1;whiteSpace=wrap;html=1;fontSize=12;glass=0;strokeWidth=1;shadow=0;sketch=1;curveFitting=1;jiggle=2;" vertex="1" parent="WIyWlLk6GJQsqaUBKTNV-1">
          <mxGeometry x="160" y="250" width="280" height="90" as="geometry" />
        </mxCell>
        <mxCell id="9ntHC3iBTA-ZRn23DrVT-3" value="&lt;b style=&quot;border-color: var(--border-color); font-size: 17px;&quot;&gt;&lt;font style=&quot;border-color: var(--border-color);&quot; color=&quot;#990000&quot;&gt;停用词:&lt;/font&gt;&lt;br style=&quot;border-color: var(--border-color);&quot;&gt;&lt;/b&gt;电器工程师中级正挂靠" style="rounded=1;whiteSpace=wrap;html=1;fontSize=12;glass=0;strokeWidth=1;shadow=0;sketch=1;curveFitting=1;jiggle=2;" vertex="1" parent="WIyWlLk6GJQsqaUBKTNV-1">
          <mxGeometry x="550" y="560" width="200" height="50" as="geometry" />
        </mxCell>
        <mxCell id="9ntHC3iBTA-ZRn23DrVT-18" style="edgeStyle=orthogonalEdgeStyle;curved=1;rounded=0;sketch=1;orthogonalLoop=1;jettySize=auto;html=1;entryX=0.5;entryY=0;entryDx=0;entryDy=0;shadow=1;fontFamily=Tahoma;fontSize=17;fontColor=#990000;targetPerimeterSpacing=2;" edge="1" parent="WIyWlLk6GJQsqaUBKTNV-1" source="9ntHC3iBTA-ZRn23DrVT-4" target="9ntHC3iBTA-ZRn23DrVT-6">
          <mxGeometry relative="1" as="geometry" />
        </mxCell>
        <mxCell id="9ntHC3iBTA-ZRn23DrVT-4" value="&lt;b style=&quot;border-color: var(--border-color); font-size: 17px;&quot;&gt;&lt;font style=&quot;border-color: var(--border-color);&quot; color=&quot;#990000&quot;&gt;词权重:&lt;/font&gt;&lt;br style=&quot;border-color: var(--border-color);&quot;&gt;&lt;/b&gt;[电器: 1, 工程师: 1, &lt;b&gt;&lt;font color=&quot;#4d9900&quot;&gt;中级证: 4, &lt;/font&gt;&lt;/b&gt;挂靠: 1,德国: 1, 电器: 1, 工程: 1, 协会: 1, &lt;b&gt;&lt;font color=&quot;#4d9900&quot;&gt;认证: 6&lt;/font&gt;&lt;/b&gt;]" style="rounded=1;whiteSpace=wrap;html=1;fontSize=12;glass=0;strokeWidth=1;shadow=0;sketch=1;curveFitting=1;jiggle=2;" vertex="1" parent="WIyWlLk6GJQsqaUBKTNV-1">
          <mxGeometry x="160" y="410" width="280" height="90" as="geometry" />
        </mxCell>
        <mxCell id="9ntHC3iBTA-ZRn23DrVT-22" style="edgeStyle=orthogonalEdgeStyle;curved=1;rounded=0;sketch=1;orthogonalLoop=1;jettySize=auto;html=1;entryX=0.5;entryY=0;entryDx=0;entryDy=0;shadow=1;fontFamily=Tahoma;fontSize=17;fontColor=#990000;targetPerimeterSpacing=2;" edge="1" parent="WIyWlLk6GJQsqaUBKTNV-1" source="9ntHC3iBTA-ZRn23DrVT-6" target="9ntHC3iBTA-ZRn23DrVT-21">
          <mxGeometry relative="1" as="geometry" />
        </mxCell>
        <mxCell id="9ntHC3iBTA-ZRn23DrVT-6" value="&lt;b style=&quot;border-color: var(--border-color); font-size: 17px;&quot;&gt;&lt;font style=&quot;border-color: var(--border-color);&quot; color=&quot;#990000&quot;&gt;词性标注+实体识别:&lt;/font&gt;&lt;br style=&quot;border-color: var(--border-color);&quot;&gt;&lt;/b&gt;[电器: 1, 工程师: 1, 中级证: 4, 挂靠: 4,&lt;b&gt;&lt;font color=&quot;#4d9900&quot;&gt;德国电器工程协会: 6, &lt;/font&gt;&lt;/b&gt;认证: 6]" style="rounded=1;whiteSpace=wrap;html=1;fontSize=12;glass=0;strokeWidth=1;shadow=0;sketch=1;curveFitting=1;jiggle=2;" vertex="1" parent="WIyWlLk6GJQsqaUBKTNV-1">
          <mxGeometry x="150" y="570" width="290" height="90" as="geometry" />
        </mxCell>
        <mxCell id="9ntHC3iBTA-ZRn23DrVT-7" value="词权重表" style="swimlane;fontStyle=0;childLayout=stackLayout;horizontal=1;startSize=30;horizontalStack=0;resizeParent=1;resizeParentMax=0;resizeLast=0;collapsible=1;marginBottom=0;whiteSpace=wrap;html=1;rounded=1;shadow=1;sketch=1;fontSize=17;fontColor=#990000;dashed=1;dashPattern=1 1;" vertex="1" parent="WIyWlLk6GJQsqaUBKTNV-1">
          <mxGeometry x="600" y="350" width="140" height="120" as="geometry" />
        </mxCell>
        <mxCell id="9ntHC3iBTA-ZRn23DrVT-9" value="中级 4" style="text;strokeColor=none;fillColor=none;align=left;verticalAlign=middle;spacingLeft=4;spacingRight=4;overflow=hidden;points=[[0,0.5],[1,0.5]];portConstraint=eastwest;rotatable=0;whiteSpace=wrap;html=1;fontSize=17;fontColor=#990000;" vertex="1" parent="9ntHC3iBTA-ZRn23DrVT-7">
          <mxGeometry y="30" width="140" height="30" as="geometry" />
        </mxCell>
        <mxCell id="9ntHC3iBTA-ZRn23DrVT-10" value="中级证 4" style="text;strokeColor=none;fillColor=none;align=left;verticalAlign=middle;spacingLeft=4;spacingRight=4;overflow=hidden;points=[[0,0.5],[1,0.5]];portConstraint=eastwest;rotatable=0;whiteSpace=wrap;html=1;fontSize=17;fontColor=#990000;" vertex="1" parent="9ntHC3iBTA-ZRn23DrVT-7">
          <mxGeometry y="60" width="140" height="30" as="geometry" />
        </mxCell>
        <mxCell id="9ntHC3iBTA-ZRn23DrVT-8" value="认证&amp;nbsp; 6" style="text;strokeColor=none;fillColor=none;align=left;verticalAlign=middle;spacingLeft=4;spacingRight=4;overflow=hidden;points=[[0,0.5],[1,0.5]];portConstraint=eastwest;rotatable=0;whiteSpace=wrap;html=1;fontSize=17;fontColor=#990000;" vertex="1" parent="9ntHC3iBTA-ZRn23DrVT-7">
          <mxGeometry y="90" width="140" height="30" as="geometry" />
        </mxCell>
        <mxCell id="9ntHC3iBTA-ZRn23DrVT-11" style="edgeStyle=orthogonalEdgeStyle;rounded=0;sketch=1;orthogonalLoop=1;jettySize=auto;html=1;entryX=1;entryY=0.5;entryDx=0;entryDy=0;shadow=1;fontSize=17;fontColor=#990000;targetPerimeterSpacing=2;curved=1;" edge="1" parent="WIyWlLk6GJQsqaUBKTNV-1" source="9ntHC3iBTA-ZRn23DrVT-9" target="9ntHC3iBTA-ZRn23DrVT-4">
          <mxGeometry relative="1" as="geometry" />
        </mxCell>
        <mxCell id="9ntHC3iBTA-ZRn23DrVT-16" style="edgeStyle=orthogonalEdgeStyle;rounded=0;sketch=1;orthogonalLoop=1;jettySize=auto;html=1;entryX=0;entryY=0.5;entryDx=0;entryDy=0;shadow=1;fontFamily=Tahoma;fontSize=17;fontColor=#990000;targetPerimeterSpacing=2;elbow=vertical;curved=1;" edge="1" parent="WIyWlLk6GJQsqaUBKTNV-1" source="9ntHC3iBTA-ZRn23DrVT-12" target="9ntHC3iBTA-ZRn23DrVT-2">
          <mxGeometry relative="1" as="geometry" />
        </mxCell>
        <mxCell id="9ntHC3iBTA-ZRn23DrVT-12" value="停用词" style="swimlane;fontStyle=0;childLayout=stackLayout;horizontal=1;startSize=30;horizontalStack=0;resizeParent=1;resizeParentMax=0;resizeLast=0;collapsible=1;marginBottom=0;whiteSpace=wrap;html=1;rounded=1;shadow=1;dashed=1;dashPattern=1 1;sketch=1;fontFamily=Tahoma;fontSize=17;fontColor=#990000;" vertex="1" parent="WIyWlLk6GJQsqaUBKTNV-1">
          <mxGeometry x="-110" y="200" width="140" height="120" as="geometry" />
        </mxCell>
        <mxCell id="9ntHC3iBTA-ZRn23DrVT-14" value="吗" style="text;strokeColor=none;fillColor=none;align=left;verticalAlign=middle;spacingLeft=4;spacingRight=4;overflow=hidden;points=[[0,0.5],[1,0.5]];portConstraint=eastwest;rotatable=0;whiteSpace=wrap;html=1;fontSize=17;fontFamily=Tahoma;fontColor=#990000;" vertex="1" parent="9ntHC3iBTA-ZRn23DrVT-12">
          <mxGeometry y="30" width="140" height="30" as="geometry" />
        </mxCell>
        <mxCell id="9ntHC3iBTA-ZRn23DrVT-13" value="可以" style="text;strokeColor=none;fillColor=none;align=left;verticalAlign=middle;spacingLeft=4;spacingRight=4;overflow=hidden;points=[[0,0.5],[1,0.5]];portConstraint=eastwest;rotatable=0;whiteSpace=wrap;html=1;fontSize=17;fontFamily=Tahoma;fontColor=#990000;" vertex="1" parent="9ntHC3iBTA-ZRn23DrVT-12">
          <mxGeometry y="60" width="140" height="30" as="geometry" />
        </mxCell>
        <mxCell id="9ntHC3iBTA-ZRn23DrVT-15" value="哈哈" style="text;strokeColor=none;fillColor=none;align=left;verticalAlign=middle;spacingLeft=4;spacingRight=4;overflow=hidden;points=[[0,0.5],[1,0.5]];portConstraint=eastwest;rotatable=0;whiteSpace=wrap;html=1;fontSize=17;fontFamily=Tahoma;fontColor=#990000;" vertex="1" parent="9ntHC3iBTA-ZRn23DrVT-12">
          <mxGeometry y="90" width="140" height="30" as="geometry" />
        </mxCell>
        <mxCell id="9ntHC3iBTA-ZRn23DrVT-19" value="查询语句重写" style="swimlane;whiteSpace=wrap;html=1;rounded=1;shadow=1;dashed=1;dashPattern=1 1;sketch=1;fontFamily=Tahoma;fontSize=17;fontColor=#990000;" vertex="1" parent="WIyWlLk6GJQsqaUBKTNV-1">
          <mxGeometry x="135" y="990" width="330" height="210" as="geometry" />
        </mxCell>
        <mxCell id="9ntHC3iBTA-ZRn23DrVT-20" value="&lt;h1&gt;Heading&lt;/h1&gt;&lt;p&gt;Lorem ipsum dolor sit amet, consectetur adipisicing elit, sed do eiusmod tempor incididunt ut labore et dolore magna aliqua.&lt;/p&gt;" style="text;html=1;strokeColor=none;fillColor=none;spacing=5;spacingTop=-20;whiteSpace=wrap;overflow=hidden;rounded=0;fontSize=17;fontFamily=Tahoma;fontColor=#990000;" vertex="1" parent="9ntHC3iBTA-ZRn23DrVT-19">
          <mxGeometry x="10" y="30" width="320" height="170" as="geometry" />
        </mxCell>
        <mxCell id="9ntHC3iBTA-ZRn23DrVT-21" value="&lt;b style=&quot;border-color: var(--border-color); font-size: 17px;&quot;&gt;&lt;font style=&quot;border-color: var(--border-color);&quot; color=&quot;#990000&quot;&gt;同义词扩展:&lt;/font&gt;&lt;br style=&quot;border-color: var(--border-color);&quot;&gt;&lt;/b&gt;[电器: 1, 工程师: 1, 中级证: 4, &lt;b&gt;&lt;font color=&quot;#4d9900&quot;&gt;[挂靠, 资质]: 4,&lt;/font&gt;&lt;/b&gt;德国电器工程协会: 6, 认证: 6]" style="rounded=1;whiteSpace=wrap;html=1;fontSize=12;glass=0;strokeWidth=1;shadow=0;sketch=1;curveFitting=1;jiggle=2;" vertex="1" parent="WIyWlLk6GJQsqaUBKTNV-1">
          <mxGeometry x="10" y="750" width="290" height="90" as="geometry" />
        </mxCell>
      </root>
    </mxGraphModel>
  </diagram>
</mxfile>
